<?xml version="1.0" standalone="no"?>
<!DOCTYPE svg PUBLIC "-//W3C//DTD SVG 20010904//EN"
 "http://www.w3.org/TR/2001/REC-SVG-20010904/DTD/svg10.dtd">
<svg version="1.0" xmlns="http://www.w3.org/2000/svg"
 width="700.000000pt" height="700.000000pt" viewBox="0 0 700.000000 700.000000"
 preserveAspectRatio="xMidYMid meet">
<metadata>
Created by potrace 1.11, written by Peter Selinger 2001-2013
</metadata>
<g transform="translate(0.000000,700.000000) scale(0.100000,-0.100000)"
fill="#000000" stroke="none">
<path d="M3422 6339 c-100 -12 -242 -67 -306 -119 -62 -50 -110 -98 -141 -140
-229 -311 -147 -735 184 -951 l24 -15 -48 -85 c-26 -46 -55 -97 -65 -114 -9
-16 -33 -59 -52 -95 -19 -36 -123 -222 -230 -415 -108 -192 -208 -372 -223
-400 -97 -176 -134 -242 -150 -268 -10 -15 -34 -7 -235 79 -124 52 -238 101
-255 109 -16 7 -64 27 -105 45 -41 18 -93 40 -115 50 -22 10 -80 35 -130 56
-49 20 -91 38 -93 40 -2 1 7 30 19 65 32 93 36 257 8 359 -33 120 -82 204
-174 296 -128 128 -284 194 -460 194 -288 0 -545 -194 -631 -475 -22 -72 -25
-274 -5 -345 62 -220 239 -401 456 -465 67 -20 229 -29 287 -16 43 10 38 20
77 -154 30 -132 100 -434 111 -480 22 -89 52 -221 56 -245 3 -14 7 -33 10 -42
3 -9 7 -25 9 -35 2 -10 29 -128 60 -263 32 -135 74 -319 95 -410 20 -91 58
-253 83 -361 l46 -197 2 -252 c1 -193 5 -265 16 -304 50 -170 173 -285 339
-319 46 -9 427 -12 1630 -11 1737 1 1626 -3 1741 66 101 61 180 175 202 293 5
28 10 158 11 290 0 132 5 256 10 275 5 19 11 46 14 60 3 14 7 34 10 45 5 20
16 70 81 350 20 88 49 214 64 280 16 66 38 161 50 210 11 50 43 189 71 310 28
121 53 228 55 239 3 10 18 80 36 155 17 75 32 143 34 151 2 8 8 33 13 55 6 22
13 51 16 65 4 27 44 195 52 221 4 14 11 15 40 9 62 -14 196 -9 272 11 114 29
206 82 298 174 138 137 202 302 190 490 -7 123 -16 158 -66 261 -83 173 -260
311 -450 350 -220 45 -435 -20 -595 -181 -139 -138 -198 -287 -191 -479 4
-108 8 -129 31 -196 8 -24 14 -44 13 -45 -3 -2 -894 -384 -914 -392 -6 -2 -64
92 -129 209 -138 247 -122 219 -257 463 -58 105 -116 208 -128 230 -13 22 -39
69 -58 105 -19 36 -75 136 -124 222 -48 87 -88 159 -88 161 0 3 19 17 42 32
289 191 377 577 201 877 -98 167 -293 296 -475 313 -35 4 -72 8 -83 9 -11 1
-49 -1 -83 -5z m178 -459 c77 -39 121 -119 115 -209 -16 -220 -309 -275 -412
-78 -36 70 -18 183 40 246 59 64 176 82 257 41z m-75 -1137 c11 -21 58 -105
104 -188 46 -82 99 -179 119 -215 19 -36 61 -111 93 -167 33 -56 59 -105 59
-108 0 -3 10 -22 23 -43 13 -20 41 -68 62 -107 34 -63 87 -159 157 -285 14
-25 34 -61 44 -80 96 -180 242 -272 421 -265 91 3 108 9 529 190 197 84 360
150 362 146 2 -5 -9 -60 -24 -122 -94 -406 -136 -587 -140 -609 -3 -14 -16
-70 -29 -125 -30 -124 -55 -232 -61 -265 -6 -27 -75 -323 -101 -430 -8 -36
-16 -72 -18 -80 -2 -13 -190 -15 -1625 -15 l-1623 0 -34 150 c-41 181 -16 69
-177 767 -74 324 -138 598 -141 610 -2 13 -10 45 -16 71 -6 27 -9 50 -7 52 2
2 166 -66 363 -151 198 -85 389 -163 425 -173 165 -45 340 7 446 133 30 36
213 354 369 641 17 33 65 119 105 190 41 72 92 164 114 205 93 172 171 309
176 310 3 0 14 -17 25 -37z m-2544 -178 c37 -20 66 -51 91 -99 39 -76 14 -198
-52 -254 -32 -27 -103 -54 -145 -54 -49 0 -118 28 -154 62 -35 34 -61 99 -61
153 -1 167 171 269 321 192z m5248 1 c92 -49 137 -174 97 -271 -51 -121 -181
-169 -299 -111 -123 60 -157 217 -70 324 70 86 175 108 272 58z m-1201 -3253
l-3 -218 -1527 -1 -1528 0 0 218 0 218 1530 0 1530 0 -2 -217z"/>
</g>
</svg>
